<?xml version="1.0" encoding="utf-8"?>
<!-- Generator: Adobe Illustrator 25.3.1, SVG Export Plug-In . SVG Version: 6.00 Build 0)  -->
<svg version="1.1" id="Ebene_1" xmlns="http://www.w3.org/2000/svg" xmlns:xlink="http://www.w3.org/1999/xlink" x="0px" y="0px"
	 viewBox="0 0 300 40" style="enable-background:new 0 0 300 40;" xml:space="preserve">
<style type="text/css">
	.st0{fill:#1D1D1B;}
</style>
<g>
	<polygon class="st0" points="9,1.2 0,1.2 0,38.8 25.1,38.8 25.1,30.7 9,30.7 	"/>
	<polygon class="st0" points="35.8,38.8 64.1,38.8 64.1,31 44.9,31 44.9,23.3 62.6,23.3 62.6,16.3 44.9,16.3 44.9,9 64.2,9 
		64.2,1.2 35.8,1.2 	"/>
	<path class="st0" d="M86,1.2L72.8,38.8h9.3l2.6-8.3h14.5l2.6,8.3h9.6L98.4,1.2H86z M86.8,23.9l1.4-4.6c1.1-3.4,2.1-6.9,3.1-10.3
		h1.5c0.9,3.4,1.9,6.9,2.9,10.2l1.4,4.6H86.8z"/>
	<path class="st0" d="M146.3,12.8c0,4.5,0.3,11,0.8,16.5l-1,0.1c-1.8-5.3-3.9-10.5-6.4-15.6l-6.6-12.6h-12.8v37.5h8.4V27.5
		c0-4.6-0.4-12.5-0.8-18.1l1-0.1c1.8,4.8,4.3,11.1,6.1,14.7l7.7,14.8h12V1.2h-8.3V12.8z"/>
	<path class="st0" d="M176.7,1.2l-13.1,37.5h9.3l2.6-8.3h14.5l2.6,8.3h9.6L189,1.2H176.7z M177.5,23.9l1.5-4.6
		c1.1-3.4,2.1-6.9,3.1-10.3h1.5c0.9,3.4,1.9,6.9,2.9,10.3l1.4,4.6H177.5z"/>
	<polygon class="st0" points="203.3,9.5 214.1,9.5 214.1,38.8 223.1,38.8 223.1,9.5 233.9,9.5 233.9,1.2 203.3,1.2 	"/>
	<rect x="244.2" y="1.2" class="st0" width="9" height="37.5"/>
	<path class="st0" d="M291.5,23.4c-1.1,5.6-3.4,8.5-8.9,8.5c-6.5,0-9.3-4.6-9.3-12c0-6.6,2.8-11.6,9.4-11.6c5.2,0,7.6,2.9,8.6,8.4
		l8.6-1.7c-1.1-9.3-7.1-14.6-17-14.6c-11.4,0-18.6,7.2-18.6,19.5c0,12.4,6.7,19.8,18.3,19.8c10,0,16.2-5.4,17.3-14.8L291.5,23.4z"/>
</g>
</svg>
